# xmcd
#
# Track frame offsets:
#	150
#	16392
#	30020
#	50395
#	75342
#	97370
#	119360
#	138412
#	167740
#	190675
#	208375
#	227132
#	246795
#	264677
#	283757
#	302757
#	317677
#	334672
#
# Disc length: 4677 seconds
#
# Revision: 0
# Processed by: cddbd v1.4PL0 Copyright (c) Steve Scherf et al.
# Submitted via: audiograbber 1.82.02
#
DISCID=fa124312
DTITLE=Snowy White's Blues Agency - 18 Classics
DYEAR=1998
DGENRE=Blues-Rock
TTITLE0=The Agency Blues
TTITLE1=You Know It Ain't Right
TTITLE2=Woke Up This Morning
TTITLE3=Land Of Plenty
TTITLE4=Blues On Me
TTITLE5=I Want Your Love
TTITLE6=The Thrill Is Gone
TTITLE7=Change My Life
TTITLE8=Judgment Day
TTITLE9=Parchment Farm
TTITLE10=No Place To Go
TTITLE11=Can:t Help Myself
TTITLE12=When You Broke Your Promise You Broke My Heart
TTITLE13=Out Of My Dreams
TTITLE14=Addicted Man
TTITLE15=Open For Business
TTITLE16=Walking The Street
TTITLE17=The Agency Shuffle
EXTD=
EXTT0=
EXTT1=
EXTT2=
EXTT3=
EXTT4=
EXTT5=
EXTT6=
EXTT7=
EXTT8=
EXTT9=
EXTT10=
EXTT11=
EXTT12=
EXTT13=
EXTT14=
EXTT15=
EXTT16=
EXTT17=
PLAYORDER=
